<?xml version="1.0" encoding="UTF-8" standalone="no"?>
<svg width="26px" height="32px" viewBox="0 0 26 32" version="1.1" xmlns="http://www.w3.org/2000/svg" xmlns:xlink="http://www.w3.org/1999/xlink">
    <defs></defs>
    <g stroke="none" stroke-width="1" fill="none" fill-rule="evenodd">
        <g transform="translate(-311.000000, -1348.000000)" fill="#F8F8F8">
            <g transform="translate(311.000000, 1348.000000)">
                <path d="M25,0 L1,0 C0.448,0 0,0.448 0,1 L0,7 C0,7.552 0.448,8 1,8 L2,8 C2.552,8 3,7.552 3,7 L5,4 L11,4 L11,28 L6,30 C5.448,30 5,30.447 5,31 C5,31.553 5.448,32 6,32 L20,32 C20.553,32 21,31.553 21,31 C21,30.447 20.553,30 20,30 L15,28 L15,4 L21,4 L23,7 C23,7.552 23.447,8 24,8 L25,8 C25.553,8 26,7.552 26,7 L26,1 C26,0.448 25.553,0 25,0 L25,0 Z"></path>
            </g>
        </g>
    </g>
</svg>