<?xml version="1.0" encoding="UTF-8" standalone="no"?>
<svg width="32px" height="32px" viewBox="0 0 32 32" version="1.1" xmlns="http://www.w3.org/2000/svg" xmlns:xlink="http://www.w3.org/1999/xlink">
    <defs></defs>
    <g stroke="none" stroke-width="1" fill="none" fill-rule="evenodd">
        <g transform="translate(-308.000000, -1403.000000)" fill="#F8F8F8">
            <g transform="translate(308.000000, 1403.000000)">
                <path d="M22.7504,22.7504 L24.0256,20.6496 L16.8256,16.2992 L16.8256,7.9744 L14.4256,7.9744 L14.4256,17.5744 L22.7504,22.7504 Z M16,0.0256 C20.4,0.0256 24.1626667,1.58826667 27.288,4.7136 C30.4133333,7.83893333 31.976,11.6016 31.976,16.0016 C31.976,20.4016 30.4133333,24.1642667 27.288,27.2896 C24.1626667,30.4149333 20.4,31.9776 16,31.9776 C11.6,31.9776 7.83733333,30.4149333 4.712,27.2896 C1.58666667,24.1642667 0.024,20.4016 0.024,16.0016 C0.024,11.6016 1.58666667,7.83893333 4.712,4.7136 C7.83733333,1.58826667 11.6,0.0256 16,0.0256 L16,0.0256 Z"></path>
            </g>
        </g>
    </g>
</svg>