<svg width="224" height="95" viewBox="0 0 224 95" xmlns="http://www.w3.org/2000/svg"><defs><linearGradient x1="71.934%" y1="22.429%" x2="56.062%" y2="74.619%" id="a"><stop stop-color="#0054ff" stop-opacity=".8" offset="0%"/><stop stop-color="#0054ff" offset="100%"/></linearGradient></defs><g fill="none" fill-rule="evenodd"><path d="M78.466 0L52.31 94.5H0L26.155 0h52.31zM181.828 0l-26.156 94.5h-52.31L129.516 0h52.31z" fill="#2A3B4D"/><path d="M121.737 0l-5.14 18.27H80.672L85.812 0h35.925zM223.468 0l-5.14 18.27h-35.925L187.543 0h35.925z" fill-opacity=".7" fill="#0054ff"/><path d="M109.762 38.43l-5.14 18.27H68.697l5.14-18.27h35.925z" fill-opacity=".8" fill="#0054ff"/><path d="M99.048 76.23l-5.14 18.27H57.983l5.14-18.27h35.925z" fill="#0054ff"/><path d="M187.248 56.07l-6.105 19.53h-14.398l-5.14 18.27h35.924l5.14-18.27 5.574-19.53 5.042-18.27h-28.992l-5.042 18.27h7.996z" fill="url(#a)"/></g></svg>