<?xml version="1.0" encoding="UTF-8" standalone="no"?>
<svg width="32px" height="26px" viewBox="0 0 32 26" version="1.1" xmlns="http://www.w3.org/2000/svg" xmlns:xlink="http://www.w3.org/1999/xlink">
    <defs></defs>
    <g stroke="none" stroke-width="1" fill="none" fill-rule="evenodd">
        <g transform="translate(-992.000000, -1662.000000)" fill="#2A3B4D">
            <g transform="translate(991.000000, 1661.000000)">
                <path d="M33,4.076 C31.823,4.598 30.557,4.951 29.229,5.11 C30.584,4.297 31.625,3.011 32.116,1.478 C30.847,2.23 29.442,2.777 27.947,3.071 C26.749,1.795 25.043,0.998 23.155,0.998 C19.529,0.998 16.59,3.937 16.59,7.563 C16.59,8.078 16.648,8.579 16.76,9.059 C11.304,8.785 6.466,6.171 3.228,2.199 C2.663,3.169 2.339,4.296 2.339,5.5 C2.339,7.778 3.498,9.787 5.26,10.965 C4.184,10.931 3.172,10.636 2.286,10.144 C2.285,10.171 2.285,10.199 2.285,10.227 C2.285,13.408 4.548,16.061 7.551,16.664 C7,16.814 6.42,16.894 5.821,16.894 C5.398,16.894 4.987,16.853 4.586,16.776 C5.421,19.384 7.846,21.282 10.719,21.335 C8.472,23.096 5.641,24.145 2.565,24.145 C2.035,24.145 1.513,24.114 0.999,24.053 C3.904,25.916 7.355,27.003 11.063,27.003 C23.139,27.003 29.742,16.999 29.742,8.323 C29.742,8.038 29.736,7.755 29.723,7.474 C31.006,6.548 32.119,5.392 32.999,4.076 L33,4.076 Z"></path>
            </g>
        </g>
    </g>
</svg>